<?xml version="1.0" encoding="UTF-8"?>
<svg id="katman_1" data-name="katman 1" xmlns="http://www.w3.org/2000/svg" viewBox="0 0 61.98 35.91">
  <defs>
    <style>
      .cls-1 {
        isolation: isolate;
      }

      .cls-2 {
        fill: #212121;
      }
    </style>
  </defs>
  <path class="cls-2" d="M6.97,22.6v-8.01h2.42v5.59h1.87c.09,0,.17-.1.24-.18,1.4-1.39,2.79-2.78,4.18-4.18.07-.07.15-.16.15-.26.01-.59,0-1.18.01-1.81H6.98c0-.78-.02-1.52,0-2.25,0-.07.12-.13.19-.18.04-.02.11,0,.16,0h10.63c.08,0,.16,0,.3.01,0,.44.02.87.02,1.29,0,1.21.01,2.43,0,3.64,0,.21-.07.45-.21.59-1.83,1.85-3.67,3.69-5.52,5.52-.14.14-.37.24-.57.24-1.53.02-3.07.01-4.6.01-.12,0-.24,0-.4-.02h0Z"/>
  <g class="cls-1">
    <g class="cls-1">
      <path class="cls-2" d="M23.41,12.92h3.26c2.67,0,4.52,1.56,4.52,4.26s-1.85,4.26-4.52,4.26h-3.26v-8.52ZM24.19,13.56v7.24h2.45c2.25,0,3.76-1.3,3.76-3.63s-1.51-3.62-3.76-3.62h-2.45Z"/>
    </g>
    <g class="cls-1">
      <path class="cls-2" d="M31.73,18.26c0-2.02,1.4-3.34,3.29-3.34s3.25,1.24,3.25,3.24v.13h-5.81c.02,1.68,1.07,2.7,2.56,2.7,1.19,0,2.11-.69,2.42-1.85h.74c-.37,1.52-1.58,2.44-3.18,2.44-1.9,0-3.28-1.25-3.28-3.32ZM32.5,17.75h5.02c-.21-1.39-1.17-2.24-2.5-2.24s-2.33.86-2.52,2.24Z"/>
    </g>
    <g class="cls-1">
      <path class="cls-2" d="M38.24,20.92l4.71-5.27h-4.65s0-.57,0-.57h5.61v.52l-4.72,5.27h4.69s0,.57,0,.57h-5.64v-.52Z"/>
      <path class="cls-2" d="M44.47,13.33h.78v1h-.78v-1ZM44.5,15.07h.73v6.37h-.73v-6.37Z"/>
      <path class="cls-2" d="M45.85,19.86c0-1.36,1.39-1.72,3.08-2.05,1.38-.27,2-.57,2-1.1,0-.67-.74-1.21-1.91-1.21s-2.01.61-2.28,1.67h-.71c.27-1.34,1.39-2.24,3.01-2.24,1.53,0,2.62.71,2.62,2v4.5h-.72v-1.08c-.6.77-1.61,1.21-2.71,1.21-1.47,0-2.38-.65-2.38-1.71ZM48.31,21c1.06,0,2.12-.44,2.63-1.19v-2.17c-.33.3-.96.57-1.94.75-1.38.26-2.42.52-2.42,1.45,0,.79.77,1.16,1.73,1.16Z"/>
    </g>
  </g>
  <g class="cls-1">
    <g class="cls-1">
      <path class="cls-2" d="M23.75,23.15h.22l.52,1.43h-.21l-.15-.43h-.57l-.16.43h-.2l.54-1.43ZM24.07,23.99l-.22-.63-.23.63h.45Z"/>
      <path class="cls-2" d="M24.71,23.15h.2v1.43h-.2v-1.43Z"/>
      <path class="cls-2" d="M25.15,23.93h.49v.18h-.49v-.18Z"/>
      <path class="cls-2" d="M25.91,23.15h.65c.13,0,.23.04.31.11.08.07.12.17.12.3,0,.11-.03.21-.1.29-.07.08-.18.12-.32.12h-.45v.61h-.19v-1.43ZM26.66,23.34s-.1-.03-.18-.03h-.39v.5h.39c.09,0,.16-.02.21-.06s.08-.1.08-.2c0-.11-.04-.18-.12-.21Z"/>
      <path class="cls-2" d="M27.96,23.64c.09.09.14.22.14.4s-.04.31-.12.42-.21.17-.38.17c-.14,0-.26-.05-.34-.15-.08-.1-.13-.23-.13-.39,0-.18.04-.32.13-.42s.21-.16.36-.16c.13,0,.25.04.34.13ZM27.85,24.33c.04-.09.06-.19.06-.29,0-.1-.02-.18-.05-.24-.05-.1-.13-.14-.26-.14-.11,0-.19.04-.23.12s-.07.18-.07.3.02.2.07.28.13.11.23.11c.12,0,.2-.04.24-.13Z"/>
      <path class="cls-2" d="M28.39,23.53l.2.82.2-.82h.2l.21.82.21-.82h.18l-.3,1.05h-.18l-.21-.81-.21.81h-.18l-.3-1.05h.19Z"/>
      <path class="cls-2" d="M30.41,23.56c.07.04.12.08.16.14.04.05.06.11.07.18.01.05.02.12.02.23h-.77c0,.11.03.19.08.26.05.06.12.1.22.1.09,0,.17-.03.22-.09.03-.04.05-.08.07-.12h.17s-.02.08-.05.13c-.03.05-.05.08-.09.12-.05.05-.12.09-.2.11-.04.01-.09.02-.14.02-.13,0-.24-.05-.33-.14-.09-.09-.14-.23-.14-.4s.05-.3.14-.41.21-.16.36-.16c.07,0,.15.02.22.05ZM30.47,23.97c0-.08-.02-.14-.05-.18-.05-.08-.13-.13-.24-.13-.08,0-.15.03-.2.09-.05.06-.08.13-.09.22h.58Z"/>
      <path class="cls-2" d="M30.87,23.53h.17v.18s.05-.08.1-.13c.05-.05.11-.08.18-.08,0,0,0,0,.02,0s.02,0,.04,0v.19s-.02,0-.03,0-.02,0-.03,0c-.09,0-.16.03-.2.08-.05.06-.07.12-.07.2v.6h-.18v-1.05Z"/>
      <path class="cls-2" d="M32.18,23.56c.07.04.12.08.16.14.04.05.06.11.07.18.01.05.02.12.02.23h-.77c0,.11.03.19.08.26.05.06.12.1.22.1.09,0,.16-.03.22-.09.03-.04.05-.08.07-.12h.17s-.02.08-.04.13c-.03.05-.05.08-.09.12-.05.05-.12.09-.2.11-.04.01-.09.02-.14.02-.13,0-.24-.05-.33-.14-.09-.09-.14-.23-.14-.4s.05-.3.14-.41.21-.16.36-.16c.07,0,.15.02.22.05ZM32.25,23.97c0-.08-.02-.14-.05-.18-.05-.08-.13-.13-.24-.13-.08,0-.15.03-.2.09-.05.06-.08.13-.09.22h.58Z"/>
      <path class="cls-2" d="M33.22,23.57s.07.05.11.1v-.53h.17v1.44h-.16v-.15c-.04.06-.09.11-.15.14-.06.03-.12.04-.19.04-.12,0-.22-.05-.3-.15-.08-.1-.13-.23-.13-.39,0-.15.04-.28.12-.4.08-.11.19-.17.33-.17.08,0,.15.02.2.05ZM32.83,24.35c.05.08.12.11.23.11.08,0,.15-.04.2-.1.05-.07.08-.17.08-.3s-.03-.23-.08-.29c-.05-.06-.12-.09-.2-.09-.09,0-.16.03-.21.1-.06.07-.08.17-.08.3,0,.11.02.21.07.28Z"/>
      <path class="cls-2" d="M34.38,23.15h.2v1.43h-.2v-1.43Z"/>
      <path class="cls-2" d="M34.87,23.53h.17v.15c.05-.06.1-.11.16-.13.06-.03.12-.04.18-.04.15,0,.25.05.3.16.03.06.04.14.04.24v.67h-.18v-.66c0-.06,0-.12-.03-.15-.03-.07-.09-.1-.17-.1-.04,0-.08,0-.1.01-.05.01-.09.04-.13.09-.03.03-.05.07-.06.11,0,.04-.01.09-.01.16v.55h-.18v-1.05Z"/>
      <path class="cls-2" d="M36.02,23.24h.18v.29h.17v.14h-.17v.68s.01.06.04.07c.01,0,.04.01.07.01,0,0,.02,0,.03,0,0,0,.02,0,.03,0v.14s-.04,0-.06.01c-.02,0-.05,0-.07,0-.08,0-.14-.02-.17-.06-.03-.04-.04-.1-.04-.16v-.69h-.14v-.14h.14v-.29Z"/>
      <path class="cls-2" d="M37.19,23.56c.07.04.12.08.16.14.04.05.06.11.07.18.01.05.02.12.02.23h-.77c0,.11.03.19.08.26.05.06.12.1.22.1.09,0,.17-.03.22-.09.03-.04.05-.08.07-.12h.17s-.02.08-.04.13c-.03.05-.05.08-.09.12-.05.05-.12.09-.2.11-.04.01-.09.02-.14.02-.13,0-.24-.05-.33-.14-.09-.09-.14-.23-.14-.4s.05-.3.14-.41c.09-.1.21-.16.36-.16.07,0,.15.02.22.05ZM37.25,23.97c0-.08-.02-.14-.05-.18-.05-.08-.13-.13-.24-.13-.08,0-.15.03-.2.09-.05.06-.08.13-.09.22h.58Z"/>
      <path class="cls-2" d="M37.65,23.53h.17v.18s.05-.08.1-.13c.05-.05.12-.08.18-.08,0,0,0,0,.02,0s.02,0,.04,0v.19s-.02,0-.03,0-.02,0-.03,0c-.09,0-.16.03-.2.08-.05.06-.07.12-.07.2v.6h-.18v-1.05Z"/>
      <path class="cls-2" d="M38.32,23.15h.18v.2h-.18v-.2ZM38.32,23.54h.18v1.04h-.18v-1.04Z"/>
      <path class="cls-2" d="M39.52,23.64c.09.09.14.22.14.4s-.04.31-.12.42-.21.17-.38.17c-.14,0-.26-.05-.34-.15-.08-.1-.13-.23-.13-.39,0-.18.04-.32.13-.42.09-.1.21-.16.36-.16.13,0,.25.04.34.13ZM39.42,24.33c.04-.09.06-.19.06-.29,0-.1-.02-.18-.05-.24-.05-.1-.13-.14-.26-.14-.11,0-.19.04-.23.12s-.07.18-.07.3.02.2.07.28.13.11.23.11c.12,0,.2-.04.24-.13Z"/>
      <path class="cls-2" d="M39.88,23.53h.17v.18s.05-.08.1-.13c.05-.05.12-.08.18-.08,0,0,0,0,.02,0s.02,0,.04,0v.19s-.02,0-.03,0-.02,0-.03,0c-.09,0-.16.03-.2.08-.05.06-.07.12-.07.2v.6h-.18v-1.05Z"/>
      <path class="cls-2" d="M41.13,23.15h.58c.2,0,.35.07.46.21.1.13.15.29.15.49,0,.15-.03.29-.09.41-.1.22-.27.33-.52.33h-.58v-1.43ZM41.67,24.41c.07,0,.12,0,.16-.02.08-.03.14-.07.19-.15.04-.06.07-.13.08-.22,0-.05.01-.1.01-.15,0-.18-.04-.32-.11-.41-.07-.1-.18-.15-.34-.15h-.34v1.1h.35Z"/>
      <path class="cls-2" d="M43.19,23.56c.07.04.12.08.16.14.04.05.06.11.07.18.01.05.02.12.02.23h-.77c0,.11.03.19.08.26.05.06.12.1.22.1.09,0,.17-.03.22-.09.03-.04.05-.08.07-.12h.17s-.02.08-.04.13c-.03.05-.05.08-.09.12-.05.05-.12.09-.2.11-.04.01-.09.02-.14.02-.13,0-.24-.05-.33-.14-.09-.09-.14-.23-.14-.4s.05-.3.14-.41c.09-.1.21-.16.36-.16.07,0,.15.02.22.05ZM43.25,23.97c0-.08-.02-.14-.05-.18-.05-.08-.13-.13-.24-.13-.08,0-.15.03-.2.09-.05.06-.08.13-.09.22h.58Z"/>
      <path class="cls-2" d="M43.75,24.25c0,.06.02.1.04.13.04.06.12.08.23.08.07,0,.12-.01.17-.04.05-.03.07-.07.07-.13,0-.04-.02-.08-.06-.1-.03-.01-.08-.03-.15-.05l-.14-.04c-.09-.02-.15-.05-.2-.07-.08-.05-.11-.11-.11-.2,0-.1.04-.18.11-.24s.17-.09.29-.09c.16,0,.27.05.34.14.04.06.07.12.06.19h-.17s-.02-.08-.04-.11c-.04-.05-.11-.07-.21-.07-.07,0-.12.01-.15.04s-.05.06-.05.1c0,.05.02.08.07.11.03.02.06.03.12.04l.12.03c.13.03.21.06.25.09.07.04.1.12.1.21s-.04.17-.11.24c-.07.07-.18.1-.32.1-.16,0-.27-.04-.33-.11-.07-.07-.1-.16-.1-.26h.17Z"/>
      <path class="cls-2" d="M44.65,23.15h.18v.2h-.18v-.2ZM44.65,23.54h.18v1.04h-.18v-1.04Z"/>
      <path class="cls-2" d="M45.68,23.58s.07.06.1.1v-.13h.16v.95c0,.13-.02.24-.06.31-.07.14-.21.21-.41.21-.11,0-.21-.03-.28-.08-.08-.05-.12-.13-.13-.24h.18s.03.08.05.11c.04.04.1.06.19.06.13,0,.22-.05.26-.14.03-.06.04-.16.03-.3-.04.05-.08.09-.13.12-.05.03-.11.04-.2.04-.11,0-.21-.04-.3-.12-.08-.08-.13-.21-.13-.4,0-.17.04-.31.13-.41.08-.1.19-.15.31-.15.08,0,.15.02.21.06ZM45.7,23.76c-.05-.06-.12-.09-.2-.09-.12,0-.21.06-.25.17-.02.06-.04.14-.04.24,0,.12.02.21.07.27.05.06.11.09.19.09.13,0,.22-.06.27-.17.03-.06.04-.14.04-.23,0-.13-.03-.23-.08-.29Z"/>
      <path class="cls-2" d="M46.21,23.53h.17v.15c.05-.06.1-.11.16-.13.06-.03.12-.04.18-.04.15,0,.25.05.3.16.03.06.04.14.04.24v.67h-.18v-.66c0-.06,0-.12-.03-.15-.03-.07-.09-.1-.17-.1-.04,0-.08,0-.1.01-.05.01-.09.04-.13.09-.03.03-.05.07-.06.11,0,.04-.01.09-.01.16v.55h-.18v-1.05Z"/>
    </g>
  </g>
</svg>